<svg aria-hidden="true" style="position: absolute; width: 0; height: 0; overflow: hidden;" version="1.1" xmlns="http://www.w3.org/2000/svg" xmlns:xlink="http://www.w3.org/1999/xlink">
<defs>

<symbol id="icon-inst" viewBox="0 0 32 32">
<path d="M13.786 2.179h4.143l1.589 0.018 1.036 0.036 0.982 0.054 0.982 0.071 0.661 0.071 0.589 0.089 0.75 0.161 0.464 0.125 0.5 0.179 0.5 0.232 0.464 0.25 0.411 0.268 0.339 0.25 0.268 0.232 0.214 0.196 0.179 0.196 0.161 0.196 0.25 0.321 0.232 0.357 0.25 0.446 0.179 0.411 0.161 0.429 0.179 0.589 0.125 0.536 0.143 0.857 0.089 0.786 0.071 0.946 0.036 0.661 0.036 1.25 0.036 1.643v3.625l-0.036 2.214-0.018 0.679-0.089 1.464-0.054 0.661-0.071 0.571-0.179 0.964-0.125 0.536-0.161 0.518-0.179 0.411-0.286 0.589-0.179 0.304-0.286 0.429-0.161 0.214-0.196 0.232-0.321 0.321-0.143 0.125-0.196 0.161-0.232 0.179-0.304 0.196-0.268 0.161-0.375 0.196-0.536 0.214-0.554 0.179-0.536 0.143-0.732 0.143-0.75 0.107-0.732 0.071-1.071 0.071-0.804 0.036-1.482 0.036-0.893 0.018h-4.125l-1.661-0.036-1.018-0.036-1.089-0.071-0.804-0.071-0.589-0.071-0.661-0.125-0.643-0.143-0.357-0.107-0.518-0.196-0.429-0.196-0.393-0.214-0.286-0.179-0.232-0.161-0.232-0.179-0.179-0.143-0.232-0.214-0.268-0.268-0.161-0.196-0.232-0.304-0.286-0.429-0.25-0.446-0.143-0.321-0.179-0.482-0.125-0.393-0.143-0.536-0.125-0.643-0.107-0.732-0.089-0.839-0.054-0.75-0.054-1.393-0.036-2.214v-3.696l0.036-1.982 0.036-0.875 0.071-1.232 0.071-0.768 0.089-0.661 0.179-0.893 0.107-0.411 0.179-0.536 0.161-0.375 0.161-0.339 0.214-0.393 0.125-0.214 0.143-0.214 0.125-0.179 0.125-0.161 0.196-0.232 0.268-0.286 0.232-0.214 0.25-0.196 0.268-0.196 0.357-0.232 0.286-0.161 0.411-0.196 0.536-0.196 0.518-0.161 0.536-0.125 0.696-0.125 0.661-0.089 0.786-0.071 0.857-0.054 0.964-0.036 0.661-0.018zM13.679 4.446l-1.786 0.036-0.964 0.036-0.821 0.054-0.732 0.071-0.625 0.089-0.571 0.107-0.5 0.143-0.464 0.161-0.304 0.143-0.339 0.196-0.304 0.232-0.196 0.179-0.143 0.125-0.196 0.214-0.232 0.321-0.161 0.286-0.214 0.482-0.214 0.643-0.089 0.375-0.125 0.786-0.125 1.036-0.054 0.732-0.036 0.929-0.036 2.036v4.357l0.018 1.125 0.036 1.25 0.054 1.018 0.089 0.911 0.125 0.857 0.107 0.518 0.143 0.464 0.143 0.411 0.196 0.411 0.179 0.286 0.214 0.286 0.196 0.214 0.196 0.196 0.179 0.143 0.25 0.179 0.393 0.214 0.482 0.196 0.429 0.143 0.643 0.143 0.554 0.089 0.554 0.071 1.161 0.107 0.536 0.036 0.786 0.036 1.696 0.036h4.357l1.732-0.054 1.196-0.054 0.982-0.071 0.804-0.089 0.661-0.107 0.625-0.161 0.589-0.196 0.321-0.143 0.339-0.196 0.214-0.161 0.179-0.143 0.232-0.214 0.125-0.125 0.161-0.196 0.143-0.196 0.125-0.196 0.196-0.429 0.179-0.5 0.143-0.518 0.143-0.804 0.107-0.786 0.054-0.625 0.036-0.75 0.036-1.054 0.036-1.536v-4.786l-0.036-1.518-0.054-1.268-0.054-0.732-0.089-0.821-0.089-0.571-0.143-0.625-0.214-0.643-0.125-0.304-0.214-0.393-0.214-0.304-0.161-0.196-0.143-0.161-0.143-0.125-0.214-0.179-0.25-0.161-0.286-0.161-0.482-0.196-0.304-0.107-0.5-0.143-0.429-0.089-0.625-0.089-0.786-0.089-0.679-0.054-1.161-0.054-2.143-0.036z"></path>
<path d="M15.607 8.857h0.804l0.571 0.054 0.536 0.089 0.464 0.107 0.482 0.161 0.411 0.179 0.5 0.25 0.429 0.25 0.214 0.143 0.25 0.179 0.25 0.196 0.179 0.143 0.268 0.232 0.286 0.286 0.161 0.196 0.232 0.286 0.214 0.286 0.161 0.25 0.214 0.357 0.143 0.25 0.214 0.5 0.196 0.518 0.179 0.661 0.089 0.482 0.054 0.464 0.018 0.25v0.768l-0.036 0.429-0.071 0.482-0.125 0.536-0.125 0.446-0.107 0.268-0.232 0.518-0.268 0.518-0.179 0.286-0.196 0.286-0.196 0.268-0.179 0.232-0.196 0.214-0.25 0.268-0.143 0.125-0.25 0.214-0.179 0.143-0.232 0.179-0.357 0.232-0.268 0.161-0.411 0.214-0.518 0.214-0.393 0.143-0.661 0.179-0.446 0.089-0.429 0.054-0.607 0.036h-0.429l-0.482-0.036-0.482-0.071-0.429-0.089-0.429-0.125-0.321-0.107-0.357-0.161-0.589-0.286-0.429-0.25-0.339-0.232-0.232-0.179-0.286-0.232-0.214-0.196-0.125-0.107-0.125-0.143-0.143-0.143-0.161-0.196-0.232-0.286-0.196-0.268-0.214-0.339-0.179-0.304-0.214-0.446-0.286-0.75-0.143-0.518-0.107-0.554-0.054-0.393-0.036-0.464v-0.679l0.036-0.393 0.107-0.625 0.107-0.446 0.107-0.375 0.107-0.286 0.214-0.464 0.304-0.589 0.179-0.286 0.125-0.196 0.214-0.286 0.143-0.196 0.232-0.268 0.196-0.214 0.179-0.179 0.143-0.125 0.25-0.214 0.25-0.196 0.268-0.196 0.446-0.268 0.393-0.214 0.446-0.196 0.536-0.196 0.554-0.143 0.375-0.071 0.607-0.071zM15.589 11.125l-0.429 0.054-0.411 0.089-0.464 0.143-0.375 0.161-0.429 0.232-0.214 0.143-0.304 0.214-0.268 0.25-0.143 0.125-0.179 0.179-0.125 0.143-0.232 0.321-0.268 0.446-0.161 0.304-0.161 0.357-0.125 0.393-0.107 0.464-0.071 0.518v0.696l0.071 0.482 0.107 0.482 0.161 0.482 0.25 0.518 0.161 0.268 0.143 0.214 0.214 0.286 0.196 0.214 0.304 0.304 0.196 0.161 0.214 0.161 0.339 0.214 0.464 0.25 0.321 0.143 0.482 0.161 0.411 0.089 0.411 0.054 0.286 0.018h0.286l0.393-0.036 0.446-0.071 0.375-0.089 0.464-0.161 0.446-0.214 0.25-0.143 0.375-0.25 0.357-0.286v-0.036l0.071-0.036 0.286-0.286 0.125-0.143 0.107-0.125 0.196-0.286 0.214-0.357 0.143-0.286 0.179-0.411 0.125-0.446 0.107-0.536 0.036-0.286v-0.732l-0.089-0.625-0.089-0.375-0.179-0.536-0.286-0.571-0.196-0.304-0.179-0.25-0.161-0.196-0.214-0.232-0.143-0.143-0.143-0.125-0.304-0.232-0.268-0.161-0.429-0.25-0.339-0.161-0.375-0.143-0.321-0.089-0.357-0.071-0.429-0.054z"></path>
<path d="M23.161 7.518h0.25l0.232 0.036 0.232 0.089 0.161 0.107 0.179 0.161 0.125 0.179 0.107 0.232 0.036 0.125v0.393l-0.071 0.232-0.161 0.232-0.196 0.214-0.196 0.143-0.268 0.107-0.089 0.018h-0.357l-0.25-0.071-0.214-0.107-0.161-0.125-0.161-0.161-0.089-0.143-0.071-0.196-0.054-0.286 0.018-0.214 0.071-0.214 0.161-0.286 0.196-0.214 0.161-0.107 0.179-0.089 0.107-0.036z"></path>
</symbol>

<symbol id="icon-telegram" viewBox="0 0 32 32">
<path d="M16 0.615c-8.492 0-15.385 6.892-15.385 15.385s6.892 15.385 15.385 15.385c8.492 0 15.385-6.892 15.385-15.385s-6.892-15.385-15.385-15.385zM23.138 11.077c-0.231 2.431-1.231 8.338-1.738 11.062-0.215 1.154-0.646 1.538-1.046 1.585-0.892 0.077-1.569-0.585-2.431-1.154-1.354-0.892-2.123-1.446-3.431-2.308-1.523-1-0.538-1.554 0.338-2.446 0.231-0.231 4.169-3.815 4.246-4.138 0.011-0.049 0.009-0.1-0.004-0.148s-0.038-0.093-0.073-0.129c-0.092-0.077-0.215-0.046-0.323-0.031-0.138 0.031-2.292 1.462-6.492 4.292-0.615 0.415-1.169 0.631-1.662 0.615-0.554-0.015-1.6-0.308-2.385-0.569-0.969-0.308-1.723-0.477-1.662-1.015 0.031-0.277 0.415-0.554 1.138-0.846 4.492-1.954 7.477-3.246 8.969-3.862 4.277-1.785 5.154-2.092 5.738-2.092 0.123 0 0.415 0.031 0.6 0.185 0.154 0.123 0.2 0.292 0.215 0.415-0.015 0.092 0.015 0.369 0 0.585z"></path>
</symbol>

<symbol id="icon-tt" viewBox="0 0 32 32">
<path d="M10.567 2.933h10.783l0.633 0.033 0.533 0.050 0.433 0.067 0.433 0.1 0.483 0.15 0.467 0.183 0.45 0.217 0.367 0.2 0.367 0.217 0.25 0.167 0.3 0.217 0.233 0.183 0.167 0.15 0.067 0.050v0.033l0.067 0.033 0.467 0.467 0.117 0.133 0.217 0.267 0.217 0.3 0.217 0.317 0.217 0.35 0.15 0.267 0.2 0.417 0.233 0.6 0.133 0.417 0.117 0.5 0.083 0.483 0.050 0.517 0.017 0.3 0.017 0.883v8.85l-0.017 1.45-0.033 0.633-0.050 0.467-0.117 0.567-0.117 0.45-0.133 0.4-0.167 0.4-0.317 0.633-0.2 0.35-0.183 0.283-0.133 0.183-0.233 0.317-0.15 0.183-0.183 0.2-0.1 0.117h-0.033l-0.033 0.067-0.183 0.183-0.133 0.117-0.167 0.15-0.267 0.2-0.25 0.183-0.217 0.15-0.25 0.167-0.367 0.217-0.383 0.2-0.45 0.183-0.467 0.167-0.417 0.117-0.533 0.117-0.433 0.067-0.583 0.050-0.383 0.017h-11.067l-0.633-0.050-0.5-0.067-0.467-0.1-0.4-0.117-0.433-0.15-0.55-0.25-0.4-0.2-0.317-0.183-0.45-0.3-0.317-0.233-0.233-0.2-0.167-0.15-0.267-0.25-0.233-0.25-0.15-0.167-0.183-0.233-0.233-0.317-0.183-0.267-0.2-0.317-0.25-0.433-0.25-0.567-0.217-0.6-0.117-0.417-0.117-0.6-0.067-0.483-0.033-0.433-0.017-0.4-0.017-0.767v-9.15l0.017-0.817 0.017-0.433 0.050-0.5 0.1-0.6 0.15-0.6 0.15-0.45 0.167-0.4 0.183-0.383 0.217-0.383 0.133-0.233 0.117-0.183 0.233-0.333 0.1-0.133 0.217-0.3 0.2-0.217 0.083-0.1 0.133-0.117 0.067-0.083h0.033l0.017-0.050 0.133-0.117 0.2-0.183 0.217-0.167 0.3-0.217 0.25-0.183 0.367-0.233 0.35-0.2 0.417-0.2 0.45-0.183 0.4-0.133 0.6-0.15 0.483-0.083 0.45-0.050zM10.9 5.033l-0.5 0.017-0.6 0.050-0.45 0.083-0.433 0.117-0.483 0.183-0.483 0.233-0.317 0.2-0.217 0.15-0.267 0.2-0.2 0.183-0.067 0.050v0.033h-0.033l-0.083 0.1-0.1 0.083-0.117 0.133-0.033 0.067h-0.033l-0.233 0.267v0.033h-0.033l-0.167 0.233-0.2 0.333-0.2 0.367-0.167 0.35-0.167 0.433-0.133 0.517-0.083 0.517-0.033 0.35-0.017 0.317-0.017 1.933v8.183l0.017 0.733 0.050 0.567 0.067 0.417 0.1 0.417 0.15 0.45 0.183 0.433 0.2 0.383 0.267 0.4 0.183 0.233 0.15 0.167 0.117 0.133 0.417 0.417 0.133 0.117 0.217 0.183 0.35 0.233 0.35 0.2 0.25 0.133 0.45 0.2 0.45 0.15 0.4 0.1 0.317 0.050 0.617 0.050 0.7 0.017h6.883l3.583-0.017 0.517-0.050 0.383-0.067 0.35-0.083 0.467-0.167 0.35-0.15 0.267-0.133 0.233-0.133 0.45-0.3 0.217-0.167 0.167-0.15 0.133-0.117 0.233-0.233 0.117-0.133 0.15-0.167 0.15-0.183 0.2-0.283 0.183-0.317 0.2-0.383 0.133-0.317 0.133-0.4 0.117-0.45 0.083-0.483 0.033-0.383 0.017-11.083-0.017-0.383-0.083-0.65-0.083-0.367-0.117-0.367-0.133-0.35-0.15-0.333-0.183-0.35-0.217-0.333-0.2-0.267-0.217-0.25-0.267-0.283-0.167-0.15-0.233-0.2-0.283-0.217-0.367-0.233-0.4-0.217-0.367-0.167-0.45-0.167-0.283-0.083-0.517-0.1-0.433-0.050-0.25-0.017-0.533-0.017z"></path>
<path d="M17.117 6.933h0.367l0.217 0.050 0.217 0.117 0.15 0.133 0.15 0.2 0.15 0.283 0.2 0.467 0.2 0.367 0.183 0.283 0.15 0.2 0.183 0.233 0.2 0.217 0.383 0.383 0.183 0.15 0.317 0.217 0.4 0.233 0.267 0.133 0.233 0.1 0.433 0.117 0.45 0.067 0.583 0.050 0.267 0.050 0.233 0.117 0.183 0.15 0.15 0.167 0.117 0.217 0.033 0.117 0.017 0.25-0.033 0.233-0.067 0.167-0.117 0.2-0.233 0.25-0.167 0.117-0.183 0.050-0.133 0.017h-0.717l-0.55-0.067-0.467-0.1-0.333-0.1-0.517-0.183-0.4-0.183-0.233-0.117-0.367-0.217-0.267-0.183-0.183-0.15-0.233-0.2-0.15-0.1 0.017 0.033-0.017 2.967-0.017 5.633-0.033 0.583-0.033 0.3-0.083 0.35-0.117 0.383-0.167 0.4-0.15 0.317-0.167 0.283-0.15 0.217-0.217 0.283-0.183 0.217-0.183 0.2-0.133 0.133-0.183 0.15-0.233 0.183-0.333 0.233-0.267 0.15-0.25 0.133-0.417 0.167-0.433 0.133-0.5 0.1-0.433 0.050-0.233 0.017h-0.45l-0.35-0.033-0.433-0.067-0.383-0.1-0.317-0.117-0.433-0.183-0.317-0.167-0.35-0.217-0.233-0.183-0.183-0.15-0.267-0.25-0.183-0.183-0.15-0.183-0.167-0.217-0.2-0.283-0.25-0.417-0.233-0.517-0.133-0.417-0.133-0.633-0.050-0.483v-0.533l0.033-0.367 0.1-0.517 0.1-0.333 0.1-0.3 0.167-0.383 0.133-0.267 0.167-0.283 0.2-0.283 0.167-0.217 0.2-0.233 0.183-0.2 0.2-0.183 0.233-0.183 0.3-0.217 0.283-0.183 0.367-0.2 0.45-0.183 0.417-0.117 0.45-0.083 0.4-0.050 0.383-0.017 0.283 0.033 0.233 0.083 0.167 0.117 0.117 0.1 0.15 0.183 0.083 0.133 0.067 0.217v0.4l-0.067 0.2-0.1 0.167-0.217 0.267-0.167 0.117-0.217 0.067-0.717 0.083-0.383 0.083-0.333 0.117-0.267 0.133-0.283 0.167-0.233 0.183-0.233 0.233-0.15 0.167-0.15 0.233-0.133 0.233-0.1 0.2-0.133 0.417-0.083 0.383-0.017 0.15v0.433l0.067 0.383 0.1 0.35 0.167 0.4 0.167 0.283 0.183 0.233 0.25 0.267 0.183 0.15 0.317 0.217 0.317 0.167 0.25 0.1 0.383 0.1 0.233 0.033 0.383 0.017 0.3-0.033 0.4-0.083 0.267-0.083 0.333-0.15 0.233-0.133 0.233-0.167 0.167-0.15h0.033v-0.033l0.083-0.067 0.15-0.183 0.133-0.167 0.15-0.25 0.133-0.267 0.1-0.317 0.083-0.417 0.033-0.483v-0.6l-0.017-4.383v-1.017l0.017-5.733 0.017-0.333 0.050-0.217 0.1-0.183 0.133-0.167 0.083-0.1 0.2-0.15 0.167-0.083z"></path>
</symbol>

<symbol id="icon-phone" viewBox="0 0 24 32">
    <path d="M19.635 18.487l-2.451-0.28c-0.589-0.067-1.167 0.135-1.582 0.55l-1.775 1.775c-2.731-1.389-4.969-3.618-6.359-6.359l1.785-1.785c0.415-0.415 0.618-0.994 0.55-1.582l-0.28-2.432c-0.116-0.975-0.936-1.708-1.92-1.708h-1.669c-1.090 0-1.997 0.907-1.93 1.997 0.511 8.24 7.102 14.821 15.332 15.332 1.090 0.068 1.997-0.839 1.997-1.93v-1.669c0.010-0.975-0.724-1.795-1.698-1.911z"></path>
</symbol>

<!-- burgerMenu -->
<symbol id="icon-burger-menu" viewBox="0 0 48 32">
<path xmlns="http://www.w3.org/2000/svg" d="M4 31c-0.708 0-1.302-0.24-1.78-0.72s-0.718-1.073-0.72-1.78c-0.002-0.707 0.238-1.3 0.72-1.78s1.075-0.72 1.78-0.72h40c0.708 0 1.303 0.24 1.783 0.72s0.719 1.073 0.717 1.78c-0.002 0.707-0.242 1.301-0.72 1.782s-1.072 0.721-1.78 0.718h-40zM4 18.5c-0.708 0-1.302-0.24-1.78-0.72s-0.718-1.073-0.72-1.78c-0.002-0.707 0.238-1.3 0.72-1.78s1.075-0.72 1.78-0.72h40c0.708 0 1.303 0.24 1.783 0.72s0.719 1.073 0.717 1.78c-0.002 0.707-0.242 1.301-0.72 1.782s-1.072 0.721-1.78 0.718h-40zM4 6c-0.708 0-1.302-0.24-1.78-0.72s-0.718-1.073-0.72-1.78c-0.002-0.707 0.238-1.3 0.72-1.78s1.075-0.72 1.78-0.72h40c0.708 0 1.303 0.24 1.783 0.72s0.719 1.073 0.717 1.78c-0.002 0.707-0.242 1.301-0.72 1.782s-1.072 0.721-1.78 0.718h-40z"></path>
</symbol>

<symbol id="icon-close" viewBox="0 0 32 32">
<path d="M29.855 5.761c0.244-0.236 0.439-0.518 0.573-0.829s0.205-0.647 0.208-0.986c0.003-0.339-0.061-0.676-0.19-0.99s-0.318-0.6-0.558-0.84c-0.24-0.24-0.525-0.43-0.839-0.559s-0.651-0.193-0.99-0.191-0.675 0.073-0.986 0.207c-0.312 0.134-0.594 0.328-0.83 0.572l-10.243 10.239-10.239-10.239c-0.234-0.251-0.516-0.452-0.83-0.592s-0.652-0.215-0.995-0.221c-0.343-0.006-0.684 0.057-1.002 0.186s-0.607 0.32-0.85 0.563c-0.243 0.243-0.434 0.532-0.563 0.85s-0.192 0.659-0.186 1.002c0.006 0.343 0.081 0.682 0.221 0.995s0.341 0.596 0.592 0.83l10.232 10.243-10.239 10.239c-0.451 0.484-0.697 1.125-0.685 1.787s0.28 1.294 0.748 1.762c0.468 0.468 1.1 0.737 1.762 0.748s1.303-0.234 1.787-0.685l10.246-10.239 10.239 10.243c0.484 0.451 1.125 0.697 1.787 0.686s1.294-0.28 1.762-0.748c0.468-0.468 0.737-1.1 0.748-1.762s-0.234-1.303-0.686-1.787l-10.232-10.243 10.236-10.239z"></path>
</symbol>


</defs>
</svg>